<svg width="20" height="16" viewBox="0 0 20 16" fill="none" xmlns="http://www.w3.org/2000/svg">
<path fill-rule="evenodd" clip-rule="evenodd" d="M0 0H30.4V1.23127H0V0ZM0 2.4625H30.4V3.69377H0V2.4625ZM0 4.92187H30.4V6.15623H0V4.92187ZM0 7.38437H30.4V8.61563H0V7.38437ZM0 9.84687H30.4V11.0781H0V9.84687ZM0 12.3062H30.4V13.5375H0V12.3062ZM0 14.7687H30.4V16H0V14.7687Z" fill="#BD3D44"/>
<path fill-rule="evenodd" clip-rule="evenodd" d="M0 1.23127H30.4V2.4625H0V1.23127ZM0 3.69374H30.4V4.92187H0V3.69374ZM0 6.15314H30.4V7.38437H0V6.15314ZM0 8.61564H30.4V9.84687H0V8.61564ZM0 11.0781H30.4V12.3094H0V11.0781ZM0 13.5375H30.4V14.7688H0V13.5375Z" fill="white"/>
<path fill-rule="evenodd" clip-rule="evenodd" d="M0 0H12.1594V8.61563H0V0Z" fill="#192F5D"/>
<path fill-rule="evenodd" clip-rule="evenodd" d="M1.01268 0.368767L1.12518 0.709334H1.48145L1.19391 0.918733L1.30331 1.26247L1.01268 1.04997L0.725179 1.25933L0.834545 0.918733L0.543945 0.709334H0.906445L1.01268 0.368767ZM3.04081 0.368767L3.15018 0.709334H3.50955L3.21891 0.918733L3.32831 1.26247L3.04081 1.04997L2.75018 1.25933L2.85955 0.918733L2.57205 0.709334H2.92831L3.04081 0.368767ZM5.06581 0.368767L5.17831 0.709367H5.53145L5.24395 0.918767L5.35328 1.2625L5.06268 1.05L4.77518 1.25937L4.88455 0.918767L4.59391 0.709367H4.95331L5.06581 0.368767ZM7.09395 0.368767L7.20328 0.709367H7.56268L7.27205 0.918767L7.38455 1.2625L7.09391 1.05L6.80331 1.25937L6.91581 0.918767L6.62518 0.709367H6.98145L7.09395 0.368767ZM9.11895 0.368767L9.23145 0.709367H9.58768L9.30018 0.918767L9.40955 1.2625L9.11891 1.05L8.83141 1.25937L8.94081 0.918767L8.65331 0.709367H9.00955L9.11895 0.368767ZM11.147 0.368767L11.2564 0.709367H11.6158L11.3252 0.918767L11.4377 1.2625L11.147 1.05L10.8564 1.25937L10.9689 0.918767L10.6783 0.709367H11.0377L11.147 0.368767ZM2.02831 1.2312L2.13768 1.57187H2.49705L2.20641 1.7812L2.31268 2.12187L2.03141 1.91247L1.74081 2.12183L1.84391 1.78123L1.56268 1.57183H1.91895L2.02831 1.2312ZM4.05331 1.2312L4.16581 1.57187H4.52205L4.23141 1.7812L4.34395 2.12187L4.05328 1.91247L3.76268 2.12183L3.87518 1.78123L3.58455 1.57183H3.94391L4.05331 1.2312ZM6.08145 1.2312L6.19078 1.57187H6.55018L6.25955 1.7812L6.36891 2.12187L6.08141 1.91247L5.79081 2.12183L5.90018 1.78127L5.61268 1.57187H5.96895L6.08145 1.2312ZM8.10645 1.2312L8.21895 1.57187H8.57518L8.28455 1.7812L8.39705 2.12187L8.10641 1.91247L7.81891 2.12183L7.92831 1.78123L7.63768 1.57183H8.00018L8.10645 1.2312ZM10.1345 1.2312L10.2439 1.57187H10.6033L10.3127 1.7812L10.422 2.12187L10.1345 1.91247L9.84391 2.12183L9.95331 1.78123L9.66581 1.57183H10.022L10.1345 1.2312ZM1.01268 2.09067L1.12518 2.43753H1.48145L1.19391 2.6469L1.30331 2.98753L1.01268 2.77503L0.725179 2.98753L0.834545 2.64377L0.543945 2.43443H0.906445L1.01268 2.09067ZM3.04081 2.09067L3.15018 2.43433H3.50955L3.21891 2.6437L3.32831 2.98437L3.04081 2.77183L2.75018 2.98433L2.85955 2.6406L2.57205 2.43123H2.92831L3.04081 2.09067ZM5.06581 2.09067L5.17831 2.4344H5.53145L5.24395 2.64377L5.35328 2.98443L5.06268 2.7719L4.77518 2.9844L4.88455 2.64067L4.59391 2.4313H4.95331L5.06581 2.09067ZM7.09395 2.09067L7.20328 2.4344H7.56268L7.27205 2.64377L7.38455 2.98443L7.09391 2.7719L6.80331 2.9844L6.91581 2.64067L6.62518 2.4313H6.98145L7.09395 2.09067ZM9.11895 2.09067L9.23145 2.4344H9.58768L9.30018 2.64373L9.40955 2.9844L9.11891 2.77187L8.83141 2.98437L8.94081 2.64063L8.65331 2.43127H9.00955L9.11895 2.09067ZM11.147 2.09067L11.2564 2.4344H11.6158L11.3252 2.64377L11.4377 2.98443L11.147 2.7719L10.8564 2.9844L10.9689 2.64067L10.6783 2.4313H11.0377L11.147 2.09067ZM2.02831 2.95313L2.13768 3.29377H2.49705L2.20641 3.5031L2.31581 3.84687L2.02831 3.63437L1.73768 3.84373L1.84705 3.50313L1.55955 3.29377H1.91585L2.02831 2.95313ZM4.05331 2.95313L4.16581 3.29377H4.52205L4.23141 3.5031L4.34395 3.84687L4.05328 3.63437L3.76268 3.84373L3.87518 3.50313L3.58455 3.29377H3.94391L4.05331 2.95313ZM6.08145 2.95313L6.19078 3.29377H6.55018L6.25955 3.5031L6.36891 3.84687L6.08141 3.63437L5.79081 3.84373L5.90018 3.50313L5.61268 3.29377H5.96895L6.08145 2.95313ZM8.10645 2.95313L8.21895 3.29377H8.57518L8.28768 3.5031L8.39705 3.84687L8.10641 3.63437L7.81891 3.84373L7.92831 3.50313L7.63768 3.29377H8.00018L8.10645 2.95313ZM10.1345 2.95313L10.2439 3.29377H10.6033L10.3127 3.5031L10.422 3.84687L10.1345 3.63437L9.84391 3.84373L9.95331 3.50313L9.66581 3.29377H10.022L10.1345 2.95313ZM1.01268 3.81563L1.12518 4.15627H1.48145L1.19391 4.3656L1.30331 4.70937L1.01268 4.49687L0.725179 4.70623L0.834545 4.36563L0.543945 4.15627H0.906445L1.01268 3.81563ZM3.04081 3.81563L3.15018 4.15627H3.50955L3.21891 4.3656L3.32831 4.70627L3.04081 4.49687L2.75018 4.70623L2.85955 4.36563L2.57205 4.15627H2.92831L3.04081 3.81563ZM5.06581 3.81563L5.17831 4.15627H5.53145L5.24395 4.3656L5.35328 4.70937L5.06268 4.49687L4.77518 4.70623L4.88455 4.36563L4.59391 4.15627H4.95331L5.06581 3.81563ZM7.09395 3.81563L7.20328 4.15627H7.56268L7.27205 4.3656L7.38455 4.70937L7.09391 4.49687L6.80331 4.70623L6.91581 4.36563L6.62518 4.15627H6.98145L7.09395 3.81563ZM9.11895 3.81563L9.23145 4.15627H9.58768L9.30018 4.3656L9.40955 4.70937L9.11891 4.49687L8.83141 4.70623L8.94081 4.36563L8.65331 4.15627H9.00955L9.11895 3.81563ZM11.147 3.81563L11.2564 4.15627H11.6158L11.3252 4.3656L11.4377 4.70937L11.147 4.49687L10.8564 4.70623L10.9689 4.36563L10.6783 4.15627H11.0377L11.147 3.81563ZM2.02831 4.67813L2.13768 5.01877H2.49705L2.20641 5.2281L2.31581 5.56877L2.02831 5.35627L1.73768 5.56877L1.84705 5.225L1.55955 5.01563H1.91585L2.02831 4.67813ZM4.05331 4.67813L4.16581 5.01877H4.52205L4.23141 5.2281L4.34395 5.56877L4.05328 5.35627L3.76268 5.56877L3.87518 5.225L3.58455 5.01563H3.94391L4.05331 4.67813ZM6.08145 4.67813L6.19078 5.01877H6.55018L6.25955 5.2281L6.36891 5.56877L6.08141 5.35627L5.79081 5.56877L5.90018 5.225L5.61268 5.01563H5.96895L6.08145 4.67813ZM8.10645 4.67813L8.21895 5.01877H8.57518L8.28768 5.2281L8.39705 5.56877L8.10641 5.35627L7.81891 5.56877L7.92831 5.225L7.63768 5.01563H8.00018L8.10645 4.67813ZM10.1345 4.67813L10.2439 5.01877H10.6033L10.3127 5.2281L10.422 5.56877L10.1345 5.35627L9.84391 5.56877L9.95331 5.225L9.66581 5.01563H10.022L10.1345 4.67813ZM1.01268 5.5375L1.12518 5.88127H1.48145L1.19391 6.0906L1.30331 6.42813L1.01268 6.21877L0.725179 6.4281L0.834545 6.0875L0.543945 5.87813H0.906445L1.01268 5.5375ZM3.04081 5.5375L3.15018 5.88127H3.50955L3.21891 6.0906L3.33145 6.42813L3.04078 6.21877L2.75018 6.4281L2.86268 6.0875L2.57205 5.87813H2.92831L3.04081 5.5375ZM5.06581 5.5375L5.17831 5.88127H5.53145L5.24395 6.0906L5.35328 6.42813L5.06268 6.21877L4.77518 6.4281L4.88455 6.0875L4.59391 5.87813H4.95331L5.06581 5.5375ZM7.09395 5.5375L7.20328 5.88127H7.56268L7.27205 6.0906L7.38455 6.42813L7.09391 6.21877L6.80331 6.4281L6.91581 6.0875L6.62518 5.87813H6.98145L7.09395 5.5375ZM9.11895 5.5375L9.23145 5.88127H9.58768L9.30018 6.0906L9.40955 6.42813L9.11891 6.21877L8.83141 6.4281L8.94081 6.0875L8.65331 5.87813H9.00955L9.11895 5.5375ZM11.147 5.5375L11.2564 5.88127H11.6158L11.3252 6.0906L11.4377 6.42813L11.147 6.21877L10.8564 6.4281L10.9689 6.0875L10.6783 5.87813H11.0377L11.147 5.5375ZM2.02831 6.4L2.13768 6.74063H2.49705L2.20641 6.95L2.31581 7.29377L2.02831 7.08127L1.73768 7.2906L1.84705 6.95L1.55955 6.74063H1.91585L2.02831 6.4ZM4.05331 6.4L4.16581 6.74063H4.52205L4.23141 6.95L4.34395 7.29377L4.05328 7.08127L3.76268 7.2906L3.87518 6.95L3.58455 6.74063H3.94391L4.05331 6.4ZM6.08145 6.4L6.19078 6.74063H6.55018L6.25955 6.95L6.36891 7.29377L6.08141 7.08127L5.79081 7.2906L5.90018 6.95L5.61268 6.74063H5.96895L6.08145 6.4ZM8.10645 6.4L8.21895 6.74063H8.57518L8.28768 6.95L8.39705 7.29377L8.10641 7.08127L7.81891 7.2906L7.92831 6.95L7.63768 6.74063H8.00018L8.10645 6.4ZM10.1345 6.4L10.2439 6.74063H10.6033L10.3127 6.95L10.422 7.29377L10.1345 7.08127L9.84391 7.2906L9.95331 6.95L9.66581 6.74063H10.022L10.1345 6.4ZM1.01268 7.2625L1.12518 7.60313H1.48145L1.19391 7.8125L1.30331 8.15313L1.01268 7.94377L0.725179 8.1531L0.834545 7.80937L0.543945 7.6H0.906445L1.01268 7.2625ZM3.04081 7.2625L3.15018 7.60313H3.50955L3.21891 7.8125L3.33145 8.15313L3.04078 7.94377L2.75018 8.1531L2.86268 7.80937L2.57205 7.6H2.92831L3.04081 7.2625ZM5.06581 7.2625L5.17831 7.60313H5.53145L5.25018 7.8125L5.35955 8.15313L5.06891 7.94377L4.78141 8.1531L4.89081 7.80937L4.60018 7.6H4.95955L5.06581 7.2625ZM7.09395 7.2625L7.20328 7.60313H7.56268L7.27205 7.8125L7.38455 8.15313L7.09391 7.94377L6.80331 8.1531L6.91581 7.80937L6.62518 7.6H6.98145L7.09395 7.2625ZM9.11895 7.2625L9.23145 7.60313H9.58768L9.30018 7.8125L9.40955 8.15313L9.11891 7.94377L8.83141 8.1531L8.94081 7.80937L8.65331 7.6H9.00955L9.11895 7.2625ZM11.147 7.2625L11.2564 7.60313H11.6158L11.3252 7.8125L11.4377 8.15313L11.147 7.94377L10.8564 8.1531L10.9689 7.80937L10.6783 7.6H11.0377L11.147 7.2625Z" fill="white"/>
</svg>
