<svg width="207" height="38" viewBox="0 0 207 38" fill="none" xmlns="http://www.w3.org/2000/svg">
<g clip-path="url(#clip0_136_53)">
<path d="M20.9853 7.0259H2.23722C1.60304 7.0259 1.08691 6.51194 1.08691 5.88043V2.66273C1.08691 2.03122 1.60304 1.51727 2.23722 1.51727H20.9825C21.6167 1.51727 22.1328 2.03122 22.1328 2.66273V5.88043C22.1356 6.51194 21.6194 7.0259 20.9853 7.0259Z" fill="url(#paint0_radial_136_53)"/>
<path d="M20.9853 36.5811H2.23722C1.60304 36.5811 1.08691 36.0672 1.08691 35.4357V32.218C1.08691 31.5865 1.60304 31.0725 2.23722 31.0725H20.9825C21.6167 31.0725 22.1328 31.5865 22.1328 32.218V35.4357C22.1356 36.0699 21.6194 36.5811 20.9853 36.5811Z" fill="url(#paint1_radial_136_53)"/>
<path d="M21.6005 6.47913H1.62256V31.4799H21.6005V6.47913Z" fill="url(#paint2_radial_136_53)"/>
<path d="M22.7396 2.80489C22.509 2.2636 22.1796 1.77698 21.7623 1.3587C21.3422 0.94043 20.8535 0.612372 20.31 0.385466C19.7472 0.147624 19.1487 0.0273361 18.531 0.0273361H4.68888C4.07392 0.0273361 3.47543 0.147624 2.90989 0.385466C2.36631 0.615106 1.88038 0.943164 1.46034 1.36144C1.0403 1.77698 0.710857 2.2636 0.480247 2.80489C0.241401 3.36532 0.120605 3.96129 0.120605 4.5764V33.4072C0.120605 34.0196 0.241401 34.6155 0.480247 35.1787C0.710857 35.72 1.0403 36.2066 1.45759 36.6249C1.87763 37.0432 2.36631 37.3712 2.90989 37.5981C3.47269 37.836 4.07118 37.9563 4.68888 37.9563H18.531C19.1459 37.9563 19.7444 37.836 20.31 37.5981C20.8535 37.3685 21.3422 37.0404 21.7623 36.6249C22.1823 36.2066 22.5117 35.72 22.7396 35.1787C22.9785 34.6183 23.0993 34.0223 23.0993 33.4072V4.5764C23.0993 3.96403 22.9785 3.36806 22.7396 2.80489ZM2.5173 2.41122C3.09657 1.83439 3.87076 1.51453 4.69163 1.51453H18.531C19.3518 1.51453 20.1233 1.83165 20.7053 2.41122C21.2873 2.99079 21.6058 3.75899 21.6058 4.5764V4.99194H1.61683V4.5764C1.61683 3.75899 1.93529 2.99079 2.5173 2.41122ZM21.6058 6.47913V31.4799H1.61683V6.47913H21.6058ZM20.7053 35.5724C20.126 36.1492 19.3518 36.4691 18.531 36.4691H4.68888C3.86802 36.4691 3.09657 36.1519 2.51456 35.5724C1.93529 34.9955 1.61408 34.2246 1.61408 33.4072V32.967H21.6058V33.4072C21.6058 34.2246 21.2873 34.9928 20.7053 35.5724Z" fill="white"/>
<path d="M11.6098 35.7419C12.1768 35.7419 12.6365 35.2841 12.6365 34.7194C12.6365 34.1547 12.1768 33.697 11.6098 33.697C11.0427 33.697 10.583 34.1547 10.583 34.7194C10.583 35.2841 11.0427 35.7419 11.6098 35.7419Z" fill="white"/>
<path d="M20.1674 18.6829C20.0851 23.5381 16.2251 27.1932 11.569 27.1604C6.68773 27.1276 3.02267 23.2401 3.05836 18.6063C3.09131 13.7757 6.96501 10.1151 11.6321 10.1397C16.4969 10.1643 20.1427 14.0299 20.1674 18.6829ZM11.6102 12.2475C8.00275 12.3022 5.19974 14.9977 5.18602 18.6337C5.17503 22.2341 7.93961 25.0335 11.5992 25.039C15.2148 25.0445 18.0123 22.2942 18.0233 18.6665C18.0343 15.0606 15.2642 12.3104 11.6102 12.2475Z" fill="white"/>
<path d="M11.6072 13.3437C8.60651 13.341 6.27845 15.6265 6.27296 18.6419C6.26747 21.6518 8.59279 23.9619 11.6099 23.9591C14.6298 23.9537 16.8755 21.6436 16.9497 18.6501C16.8755 15.6593 14.6298 13.3465 11.6072 13.3437Z" fill="white"/>
<path d="M11.3382 20.8508C10.5777 20.7742 9.82274 20.5036 9.24072 20.0853L9.94079 19.0574C10.4377 19.4046 10.9044 19.6151 11.3848 19.6917V18.7649C10.1357 18.4778 9.49879 18.0541 9.49879 17.0945V17.0781C9.49879 16.165 10.1659 15.5308 11.3546 15.446V15.0059H12.1618V15.4706C12.7987 15.539 13.3341 15.7577 13.8008 16.0748L13.1638 17.1109C12.8454 16.8868 12.472 16.7309 12.1233 16.6462V17.5429C13.3588 17.8299 13.9792 18.2701 13.9792 19.2296V19.246C13.9792 20.1892 13.2489 20.7688 12.1453 20.8699V21.6272H11.3382V20.8508ZM11.3931 16.5724C11.0115 16.6024 10.866 16.7583 10.866 16.9578V16.9742C10.866 17.1765 10.9758 17.2914 11.3931 17.4062V16.5724ZM12.6367 19.3417V19.3253C12.6367 19.1176 12.5214 19 12.1179 18.8852V19.7354C12.472 19.6971 12.6367 19.5659 12.6367 19.3417Z" fill="url(#paint3_radial_136_53)"/>
<path d="M35.5192 13.4859H27.7416V17.8217H34.7011V19.1285H27.7416V23.5737H35.6125V24.8804H26.3003V12.1791H35.5192V13.4859Z" fill="#6B6B6B"/>
<path d="M39.426 16.7965C38.9703 16.9223 38.5255 17.0891 38.0863 17.2941L37.6663 16.1514C38.1879 15.9108 38.7177 15.7194 39.2503 15.58C39.7857 15.4406 40.3979 15.3722 41.0897 15.3722C42.3773 15.3722 43.3656 15.6894 44.0602 16.3236C44.752 16.9578 45.0979 17.8983 45.0979 19.1449V24.8777H43.75V23.4616C43.4233 23.8853 42.9813 24.2599 42.4294 24.5852C41.8776 24.9105 41.1803 25.0745 40.343 25.0745C39.9065 25.0745 39.4782 25.0144 39.0581 24.8941C38.6381 24.7738 38.262 24.5879 37.9298 24.3419C37.5949 24.0931 37.3286 23.7896 37.1282 23.426C36.9278 23.0624 36.8262 22.6332 36.8262 22.1384C36.8262 21.6436 36.9223 21.2035 37.1172 20.8235C37.3121 20.4435 37.5866 20.1263 37.9463 19.8721C38.3032 19.6178 38.7287 19.4237 39.2229 19.2925C39.7143 19.1586 40.2579 19.0929 40.8536 19.0929C41.4603 19.0929 41.9902 19.1285 42.4377 19.2023C42.8879 19.2761 43.3244 19.3718 43.75 19.4921V19.164C43.75 18.3165 43.5029 17.6796 43.0115 17.2504C42.52 16.8212 41.831 16.6052 40.9442 16.6052C40.3896 16.6079 39.8818 16.6708 39.426 16.7965ZM38.9785 20.6512C38.5063 21.0012 38.2702 21.4796 38.2702 22.0837C38.2702 22.3872 38.3334 22.6524 38.4597 22.882C38.5859 23.1117 38.7589 23.3085 38.9785 23.4725C39.1954 23.6365 39.448 23.7596 39.7308 23.8443C40.0163 23.9291 40.3155 23.9701 40.6285 23.9701C41.065 23.9701 41.4713 23.9072 41.8529 23.7787C42.2345 23.653 42.5667 23.4753 42.8522 23.2538C43.1377 23.0296 43.3601 22.7645 43.5248 22.4555C43.6896 22.1466 43.7692 21.8049 43.7692 21.4304V20.5227C43.4178 20.4271 43.0142 20.3341 42.5612 20.2494C42.1082 20.1646 41.5894 20.1236 41.0074 20.1236C40.1288 20.1263 39.4507 20.3013 38.9785 20.6512Z" fill="#6B6B6B"/>
<path d="M53.5646 23.437C53.3889 23.7814 53.1528 24.074 52.8535 24.3173C52.557 24.5606 52.2029 24.7437 51.7966 24.8695C51.3902 24.9953 50.9482 25.0609 50.476 25.0609C49.7952 25.0609 49.1089 24.9378 48.417 24.6891C47.7252 24.4403 47.1102 24.1068 46.5776 23.683L47.2887 22.6852C47.7993 23.0734 48.3292 23.3686 48.8837 23.5737C49.4356 23.7787 49.9929 23.8826 50.5502 23.8826C51.1212 23.8826 51.5879 23.7486 51.953 23.4835C52.3182 23.2183 52.4994 22.8547 52.4994 22.3954V22.3599C52.4994 22.1302 52.4362 21.9306 52.3072 21.7611C52.1809 21.5917 52.0052 21.444 51.7883 21.3155C51.5687 21.1898 51.3161 21.0777 51.0334 20.9793C50.7478 20.8836 50.4541 20.7906 50.1493 20.7059C49.7842 20.5965 49.4163 20.479 49.0485 20.3532C48.6778 20.2275 48.3429 20.0662 48.0464 19.8721C47.7499 19.678 47.5056 19.4374 47.3189 19.1476C47.1295 18.8578 47.0361 18.4942 47.0361 18.0596V18.024C47.0361 17.6249 47.1157 17.2586 47.2722 16.9278C47.4287 16.5942 47.6511 16.3099 47.9366 16.0748C48.2221 15.8397 48.5625 15.6565 48.9579 15.5308C49.3532 15.405 49.7815 15.3394 50.2427 15.3394C50.8247 15.3394 51.415 15.4324 52.0107 15.621C52.6064 15.8096 53.1473 16.0584 53.6332 16.3728L52.9963 17.4253C52.5598 17.1465 52.1013 16.9278 51.6209 16.7637C51.1404 16.5997 50.671 16.5177 50.2097 16.5177C49.6497 16.5177 49.2077 16.6489 48.881 16.9086C48.5543 17.1683 48.3896 17.4937 48.3896 17.8791V17.9147C48.3896 18.1334 48.4555 18.322 48.59 18.486C48.7245 18.6501 48.903 18.7922 49.1281 18.9125C49.3532 19.0328 49.6113 19.1422 49.9023 19.2378C50.1933 19.3335 50.498 19.4319 50.8137 19.5276C51.1789 19.637 51.5385 19.7573 51.8981 19.8912C52.255 20.0252 52.5817 20.1947 52.8727 20.3997C53.1637 20.6047 53.3971 20.8535 53.5728 21.1433C53.7485 21.4331 53.8364 21.7912 53.8364 22.215V22.2505C53.8281 22.6961 53.7403 23.0925 53.5646 23.437Z" fill="#6B6B6B"/>
<path d="M60.0218 25.1866C59.6209 26.1544 59.1734 26.8378 58.682 27.237C58.1906 27.6361 57.5921 27.8357 56.8866 27.8357C56.4967 27.8357 56.1453 27.7974 55.8296 27.7181C55.5139 27.6388 55.1982 27.5213 54.8825 27.3655L55.3574 26.2583C55.588 26.3786 55.8159 26.466 56.041 26.5207C56.2661 26.5754 56.5297 26.6027 56.8344 26.6027C57.2599 26.6027 57.6168 26.477 57.9106 26.2227C58.2016 25.9685 58.4871 25.5092 58.7671 24.8449L54.4844 15.5007H56.0328L59.459 23.3194L62.4843 15.5007H63.9778L60.0218 25.1866Z" fill="#6B6B6B"/>
<path d="M76.5621 21.3948H76.488L71.8428 14.6095V24.8777H70.4399V12.1791H71.8977L76.5429 19.1094L81.188 12.1791H82.6458V24.8777H81.2072V14.5931L76.5621 21.3948Z" fill="#6B6B6B"/>
<path d="M87.1731 16.7965C86.7174 16.9223 86.2726 17.0891 85.8334 17.2941L85.4133 16.1514C85.9349 15.9108 86.4648 15.7194 86.9974 15.58C87.5327 15.4406 88.145 15.3722 88.8368 15.3722C90.1244 15.3722 91.1127 15.6894 91.8073 16.3236C92.4991 16.9578 92.845 17.8983 92.845 19.1449V24.8777H91.497V23.4616C91.1703 23.8853 90.7283 24.2599 90.1765 24.5852C89.6247 24.9105 88.9274 25.0745 88.09 25.0745C87.6535 25.0745 87.2253 25.0144 86.8052 24.8941C86.3852 24.7738 86.0091 24.5879 85.6769 24.3419C85.3419 24.0931 85.0756 23.7896 84.8752 23.426C84.6748 23.0624 84.5732 22.6332 84.5732 22.1384C84.5732 21.6436 84.6693 21.2035 84.8642 20.8235C85.0592 20.4435 85.3337 20.1263 85.6934 19.8721C86.0502 19.6178 86.4758 19.4237 86.9699 19.2925C87.4614 19.1586 88.0049 19.0929 88.6007 19.0929C89.2074 19.0929 89.7373 19.1285 90.1848 19.2023C90.635 19.2761 91.0715 19.3718 91.497 19.4921V19.164C91.497 18.3165 91.25 17.6796 90.7585 17.2504C90.2671 16.8212 89.578 16.6052 88.6913 16.6052C88.1367 16.6079 87.6288 16.6708 87.1731 16.7965ZM86.7256 20.6512C86.2534 21.0012 86.0173 21.4796 86.0173 22.0837C86.0173 22.3872 86.0804 22.6524 86.2067 22.882C86.333 23.1117 86.506 23.3085 86.7256 23.4725C86.9425 23.6365 87.1951 23.7596 87.4778 23.8443C87.7634 23.9291 88.0626 23.9701 88.3756 23.9701C88.8121 23.9701 89.2184 23.9072 89.6 23.7787C89.9816 23.653 90.3138 23.4753 90.5993 23.2538C90.8848 23.0296 91.1072 22.7645 91.2719 22.4555C91.4366 22.1466 91.5163 21.8049 91.5163 21.4304V20.5227C91.1648 20.4271 90.7613 20.3341 90.3083 20.2494C89.8553 20.1646 89.3364 20.1236 88.7544 20.1236C87.8759 20.1263 87.1978 20.3013 86.7256 20.6512Z" fill="#6B6B6B"/>
<path d="M96.5103 24.8804H95.1074V15.5007H96.5103V17.9502C96.6805 17.562 96.8919 17.2066 97.1472 16.8786C97.4025 16.5532 97.6935 16.2717 98.023 16.0338C98.3497 15.7987 98.7093 15.621 99.0992 15.498C99.4863 15.3777 99.9063 15.323 100.357 15.334V16.8403H100.247C99.7361 16.8403 99.2529 16.9305 98.7972 17.1137C98.3415 17.2941 97.9434 17.5675 97.603 17.9311C97.2625 18.2947 96.9962 18.7458 96.8013 19.2816C96.6064 19.8201 96.5103 20.4407 96.5103 21.1406V24.8804Z" fill="#6B6B6B"/>
<path d="M110.119 24.8804H108.442L105.07 20.5091L103.157 22.4309V24.8804H101.754V11.6351H103.157V20.777L108.238 15.498H109.987L106.034 19.5249L110.119 24.8804Z" fill="#6B6B6B"/>
<path d="M112.159 22.0591C112.353 22.4528 112.601 22.7836 112.905 23.057C113.21 23.3304 113.548 23.5354 113.927 23.6748C114.303 23.8142 114.698 23.8826 115.11 23.8826C115.766 23.8826 116.326 23.7623 116.795 23.519C117.262 23.2784 117.69 22.9558 118.08 22.5567L118.956 23.3358C118.484 23.8689 117.943 24.2954 117.334 24.6153C116.727 24.9351 115.972 25.0964 115.074 25.0964C114.429 25.0964 113.822 24.9789 113.251 24.7437C112.68 24.5086 112.18 24.1751 111.752 23.7459C111.324 23.3167 110.983 22.8 110.731 22.1958C110.478 21.5917 110.352 20.9246 110.352 20.2001C110.352 19.5222 110.465 18.8852 110.69 18.2865C110.915 17.6878 111.228 17.1683 111.629 16.7255C112.029 16.2853 112.504 15.9354 113.059 15.6812C113.611 15.4269 114.215 15.3012 114.871 15.3012C115.563 15.3012 116.183 15.4324 116.73 15.6921C117.276 15.9518 117.737 16.3072 118.113 16.7528C118.489 17.2012 118.775 17.726 118.97 18.3302C119.165 18.9344 119.261 19.5823 119.261 20.2712C119.261 20.3314 119.261 20.397 119.261 20.4708C119.261 20.5446 119.255 20.6212 119.242 20.7059H111.791C111.843 21.2144 111.966 21.6655 112.159 22.0591ZM117.825 19.6725C117.789 19.2488 117.701 18.8442 117.561 18.456C117.421 18.0705 117.229 17.7315 116.982 17.439C116.735 17.1492 116.433 16.9168 116.076 16.7419C115.719 16.5669 115.307 16.4794 114.835 16.4794C114.426 16.4794 114.045 16.5614 113.693 16.7255C113.344 16.8895 113.034 17.1137 112.771 17.398C112.504 17.6823 112.288 18.0186 112.12 18.404C111.95 18.7922 111.843 19.2132 111.793 19.6725H117.825Z" fill="#6B6B6B"/>
<path d="M122.89 22.2122C122.89 22.7918 123.036 23.1991 123.327 23.4288C123.618 23.6584 124 23.7732 124.475 23.7732C124.716 23.7732 124.944 23.7486 125.158 23.6994C125.37 23.6502 125.597 23.5655 125.842 23.4452V24.6426C125.597 24.7766 125.339 24.875 125.068 24.9406C124.793 25.0062 124.488 25.0417 124.148 25.0417C123.772 25.0417 123.42 24.9925 123.091 24.8968C122.764 24.8012 122.481 24.6453 122.243 24.4348C122.006 24.2243 121.82 23.9482 121.688 23.6092C121.553 23.2702 121.488 22.8656 121.488 22.3927V16.7337H120.175V15.5007H121.488V12.6712H122.89V15.5007H125.877V16.7337H122.89V22.2122Z" fill="#6B6B6B"/>
<path d="M141.38 24.8804L137.682 19.9459H134.039V24.8804H132.601V12.1791H138.083C138.789 12.1791 139.423 12.2694 139.986 12.4525C140.551 12.633 141.034 12.8899 141.435 13.2235C141.836 13.557 142.146 13.9561 142.363 14.4209C142.583 14.8856 142.69 15.405 142.69 15.9737C142.69 16.5068 142.605 16.9824 142.434 17.398C142.264 17.8163 142.025 18.1799 141.715 18.486C141.405 18.795 141.037 19.0519 140.614 19.257C140.189 19.462 139.728 19.6069 139.231 19.6917L143.148 24.8777H141.38V24.8804ZM140.395 14.1694C139.824 13.7265 139.019 13.505 137.984 13.505H134.039V18.6747H137.965C138.44 18.6747 138.876 18.6145 139.28 18.4915C139.681 18.3712 140.03 18.1963 140.321 17.9721C140.612 17.7479 140.842 17.4718 141.004 17.1437C141.169 16.8157 141.251 16.4466 141.251 16.0338C141.254 15.2328 140.966 14.6122 140.395 14.1694Z" fill="#6B6B6B"/>
<path d="M145.844 22.0591C146.039 22.4528 146.286 22.7836 146.591 23.057C146.896 23.3304 147.233 23.5354 147.612 23.6748C147.988 23.8142 148.384 23.8826 148.795 23.8826C149.451 23.8826 150.012 23.7623 150.481 23.519C150.948 23.2784 151.376 22.9558 151.766 22.5567L152.642 23.3358C152.169 23.8689 151.629 24.2954 151.019 24.6153C150.412 24.9351 149.657 25.0964 148.76 25.0964C148.114 25.0964 147.508 24.9789 146.937 24.7437C146.366 24.5086 145.866 24.1751 145.438 23.7459C145.009 23.3167 144.669 22.8 144.416 22.1958C144.164 21.5917 144.038 20.9246 144.038 20.2001C144.038 19.5222 144.15 18.8852 144.375 18.2865C144.6 17.6878 144.913 17.1683 145.314 16.7255C145.715 16.2853 146.19 15.9354 146.745 15.6812C147.296 15.4269 147.9 15.3012 148.556 15.3012C149.248 15.3012 149.869 15.4324 150.415 15.6921C150.961 15.9518 151.423 16.3072 151.799 16.7528C152.175 17.2012 152.46 17.726 152.655 18.3302C152.85 18.9344 152.946 19.5823 152.946 20.2712C152.946 20.3314 152.946 20.397 152.946 20.4708C152.946 20.5446 152.941 20.6212 152.927 20.7059H145.476C145.528 21.2144 145.649 21.6655 145.844 22.0591ZM151.508 19.6725C151.472 19.2488 151.384 18.8442 151.244 18.456C151.104 18.0705 150.912 17.7315 150.665 17.439C150.418 17.1492 150.116 16.9168 149.759 16.7419C149.402 16.5669 148.99 16.4794 148.518 16.4794C148.109 16.4794 147.727 16.5614 147.376 16.7255C147.027 16.8895 146.717 17.1137 146.454 17.398C146.187 17.6823 145.97 18.0186 145.803 18.404C145.633 18.7922 145.526 19.2132 145.476 19.6725H151.508Z" fill="#6B6B6B"/>
<path d="M160.88 23.437C160.705 23.7814 160.469 24.074 160.169 24.3173C159.873 24.5606 159.519 24.7437 159.112 24.8695C158.706 24.9953 158.267 25.0609 157.792 25.0609C157.111 25.0609 156.425 24.9378 155.733 24.6891C155.041 24.4403 154.426 24.1068 153.894 23.683L154.605 22.6852C155.115 23.0734 155.645 23.3686 156.2 23.5737C156.751 23.7787 157.309 23.8826 157.866 23.8826C158.437 23.8826 158.904 23.7486 159.269 23.4835C159.634 23.2183 159.815 22.8547 159.815 22.3954V22.3599C159.815 22.1302 159.752 21.9306 159.623 21.7611C159.497 21.5917 159.321 21.444 159.104 21.3155C158.885 21.1898 158.632 21.0777 158.349 20.9793C158.064 20.8836 157.77 20.7906 157.465 20.7059C157.1 20.5965 156.732 20.479 156.364 20.3532C155.994 20.2275 155.659 20.0662 155.362 19.8721C155.066 19.678 154.821 19.4374 154.635 19.1476C154.445 18.8578 154.352 18.4942 154.352 18.0596V18.024C154.352 17.6249 154.432 17.2586 154.588 16.9278C154.745 16.5942 154.967 16.3099 155.253 16.0748C155.538 15.8397 155.878 15.6565 156.274 15.5308C156.669 15.405 157.097 15.3394 157.559 15.3394C158.141 15.3394 158.731 15.4324 159.327 15.621C159.922 15.8096 160.463 16.0584 160.949 16.3728L160.312 17.4253C159.876 17.1465 159.417 16.9278 158.937 16.7637C158.456 16.5997 157.987 16.5177 157.526 16.5177C156.968 16.5177 156.524 16.6489 156.197 16.9086C155.87 17.1683 155.705 17.4937 155.705 17.8791V17.9147C155.705 18.1334 155.771 18.322 155.906 18.486C156.04 18.6501 156.219 18.7922 156.444 18.9125C156.669 19.0328 156.927 19.1422 157.218 19.2378C157.509 19.3335 157.814 19.4319 158.13 19.5276C158.495 19.637 158.854 19.7573 159.214 19.8912C159.571 20.0252 159.898 20.1947 160.189 20.3997C160.48 20.6047 160.713 20.8535 160.889 21.1433C161.064 21.4331 161.152 21.7912 161.152 22.215V22.2505C161.147 22.6961 161.059 23.0925 160.88 23.437Z" fill="#6B6B6B"/>
<path d="M164.243 22.0591C164.438 22.4528 164.685 22.7836 164.99 23.057C165.295 23.3304 165.633 23.5354 166.011 23.6748C166.388 23.8142 166.783 23.8826 167.195 23.8826C167.851 23.8826 168.411 23.7623 168.88 23.519C169.347 23.2784 169.775 22.9558 170.165 22.5567L171.041 23.3358C170.569 23.8689 170.028 24.2954 169.418 24.6153C168.812 24.9351 168.057 25.0964 167.159 25.0964C166.514 25.0964 165.907 24.9789 165.336 24.7437C164.765 24.5086 164.265 24.1751 163.837 23.7459C163.409 23.3167 163.068 22.8 162.816 22.1958C162.563 21.5917 162.437 20.9246 162.437 20.2001C162.437 19.5222 162.55 18.8852 162.775 18.2865C163 17.6878 163.313 17.1683 163.714 16.7255C164.114 16.2853 164.589 15.9354 165.144 15.6812C165.696 15.4269 166.3 15.3012 166.956 15.3012C167.648 15.3012 168.268 15.4324 168.814 15.6921C169.361 15.9518 169.822 16.3072 170.198 16.7528C170.574 17.2012 170.86 17.726 171.055 18.3302C171.25 18.9344 171.346 19.5823 171.346 20.2712C171.346 20.3314 171.346 20.397 171.346 20.4708C171.346 20.5446 171.34 20.6212 171.326 20.7059H163.876C163.928 21.2144 164.049 21.6655 164.243 22.0591ZM169.907 19.6725C169.871 19.2488 169.784 18.8442 169.644 18.456C169.504 18.0705 169.311 17.7315 169.064 17.439C168.817 17.1492 168.515 16.9168 168.158 16.7419C167.801 16.5669 167.39 16.4794 166.917 16.4794C166.508 16.4794 166.127 16.5614 165.775 16.7255C165.427 16.8895 165.116 17.1137 164.853 17.398C164.587 17.6823 164.37 18.0186 164.202 18.404C164.032 18.7922 163.925 19.2132 163.876 19.6725H169.907Z" fill="#6B6B6B"/>
<path d="M174.964 16.7965C174.509 16.9223 174.064 17.0891 173.625 17.2941L173.205 16.1514C173.726 15.9108 174.256 15.7194 174.789 15.58C175.324 15.4406 175.936 15.3722 176.628 15.3722C177.916 15.3722 178.904 15.6894 179.598 16.3236C180.29 16.9578 180.636 17.8983 180.636 19.1449V24.8777H179.288V23.4616C178.962 23.8853 178.52 24.2599 177.968 24.5852C177.416 24.9105 176.721 25.0745 175.881 25.0745C175.445 25.0745 175.016 25.0144 174.596 24.8941C174.176 24.7738 173.8 24.5879 173.468 24.3419C173.133 24.0931 172.867 23.7896 172.666 23.426C172.466 23.0624 172.367 22.6332 172.367 22.1384C172.367 21.6436 172.463 21.2035 172.658 20.8235C172.853 20.4435 173.128 20.1263 173.487 19.8721C173.844 19.6178 174.27 19.4237 174.764 19.2925C175.255 19.1586 175.799 19.0929 176.395 19.0929C177.001 19.0929 177.531 19.1285 177.979 19.2023C178.429 19.2761 178.865 19.3718 179.291 19.4921V19.164C179.291 18.3165 179.044 17.6796 178.552 17.2504C178.061 16.8212 177.372 16.6052 176.485 16.6052C175.928 16.6079 175.42 16.6708 174.964 16.7965ZM174.517 20.6512C174.045 21.0012 173.809 21.4796 173.809 22.0837C173.809 22.3872 173.872 22.6524 174.001 22.882C174.127 23.1117 174.3 23.3085 174.517 23.4725C174.734 23.6365 174.986 23.7596 175.269 23.8443C175.555 23.9291 175.854 23.9701 176.167 23.9701C176.603 23.9701 177.01 23.9072 177.391 23.7787C177.773 23.653 178.105 23.4753 178.391 23.2538C178.676 23.0296 178.898 22.7645 179.063 22.4555C179.228 22.1466 179.307 21.8049 179.307 21.4304V20.5227C178.956 20.4271 178.552 20.3341 178.099 20.2494C177.647 20.1646 177.128 20.1236 176.546 20.1236C175.664 20.1263 174.986 20.3013 174.517 20.6512Z" fill="#6B6B6B"/>
<path d="M184.301 24.8804H182.898V15.5007H184.301V17.9502C184.472 17.562 184.683 17.2066 184.938 16.8786C185.194 16.5532 185.485 16.2717 185.814 16.0338C186.143 15.796 186.5 15.621 186.89 15.498C187.28 15.3777 187.697 15.323 188.148 15.334V16.8403H188.038C187.527 16.8403 187.044 16.9305 186.588 17.1137C186.132 17.2941 185.734 17.5675 185.394 17.9311C185.054 18.2947 184.787 18.7458 184.592 19.2816C184.397 19.8201 184.301 20.4407 184.301 21.1406V24.8804Z" fill="#6B6B6B"/>
<path d="M195.623 24.5824C195.022 24.9269 194.278 25.0991 193.391 25.0991C192.699 25.0991 192.059 24.9679 191.469 24.7082C190.879 24.4485 190.371 24.0986 189.94 23.6557C189.509 23.2155 189.171 22.6961 188.93 22.1056C188.685 21.5124 188.564 20.8836 188.564 20.2193C188.564 19.555 188.685 18.9235 188.93 18.3247C189.171 17.726 189.509 17.2039 189.94 16.7555C190.371 16.3072 190.882 15.9545 191.469 15.6948C192.059 15.4351 192.699 15.3039 193.391 15.3039C193.841 15.3039 194.247 15.3476 194.612 15.4296C194.978 15.5144 195.31 15.6319 195.615 15.7823C195.917 15.9327 196.197 16.1131 196.452 16.3181C196.707 16.5232 196.943 16.7419 197.163 16.9715L196.235 17.9502C195.859 17.562 195.45 17.2312 195.005 16.9524C194.56 16.6735 194.017 16.5341 193.374 16.5341C192.899 16.5341 192.457 16.6271 192.046 16.8157C191.634 17.0016 191.274 17.2613 190.969 17.5948C190.665 17.9256 190.429 18.3138 190.258 18.754C190.088 19.1941 190.003 19.6671 190.003 20.1755C190.003 20.6813 190.091 21.1597 190.267 21.6053C190.442 22.0509 190.687 22.4419 190.994 22.7727C191.304 23.1035 191.667 23.3632 192.087 23.5518C192.507 23.7377 192.965 23.8334 193.462 23.8334C194.069 23.8334 194.607 23.6994 195.074 23.4342C195.54 23.1691 195.963 22.8355 196.339 22.4364L197.232 23.2702C196.762 23.8006 196.224 24.238 195.623 24.5824Z" fill="#6B6B6B"/>
<path d="M200.224 24.8804H198.821V11.6351H200.224V17.1328C200.54 16.6243 200.952 16.1924 201.462 15.837C201.973 15.4816 202.635 15.3012 203.447 15.3012C204.018 15.3012 204.523 15.3914 204.968 15.5745C205.41 15.755 205.789 16.0119 206.096 16.3455C206.407 16.679 206.643 17.0754 206.808 17.5347C206.972 17.994 207.055 18.5024 207.055 19.0574V24.8804H205.652V19.4019C205.652 18.5298 205.427 17.8409 204.979 17.3351C204.529 16.8266 203.886 16.5724 203.049 16.5724C202.648 16.5724 202.275 16.6407 201.929 16.7801C201.583 16.9196 201.281 17.1191 201.029 17.3788C200.773 17.6386 200.576 17.9502 200.436 18.3138C200.296 18.6774 200.227 19.0765 200.227 19.5112V24.8804H200.224Z" fill="#6B6B6B"/>
</g>
<defs>
<radialGradient id="paint0_radial_136_53" cx="0" cy="0" r="1" gradientUnits="userSpaceOnUse" gradientTransform="translate(2.10303 35.5283) scale(38.1557 37.9953)">
<stop stop-color="#60D193"/>
<stop offset="0.2077" stop-color="#5ECDB2"/>
<stop offset="0.5606" stop-color="#5BC5EF"/>
<stop offset="1" stop-color="#417DF7"/>
</radialGradient>
<radialGradient id="paint1_radial_136_53" cx="0" cy="0" r="1" gradientUnits="userSpaceOnUse" gradientTransform="translate(2.11294 35.6801) scale(38.01 37.8502)">
<stop stop-color="#60D193"/>
<stop offset="0.2077" stop-color="#5ECDB2"/>
<stop offset="0.5606" stop-color="#5BC5EF"/>
<stop offset="1" stop-color="#417DF7"/>
</radialGradient>
<radialGradient id="paint2_radial_136_53" cx="0" cy="0" r="1" gradientUnits="userSpaceOnUse" gradientTransform="translate(2.16076 30.9717) scale(26.5176 33.1847)">
<stop stop-color="#60D193"/>
<stop offset="0.2077" stop-color="#5ECDB2"/>
<stop offset="0.5606" stop-color="#5BC5EF"/>
<stop offset="1" stop-color="#417DF7"/>
</radialGradient>
<radialGradient id="paint3_radial_136_53" cx="0" cy="0" r="1" gradientUnits="userSpaceOnUse" gradientTransform="translate(-7.55763 42.1281) scale(54.1623 53.9346)">
<stop stop-color="#60D193"/>
<stop offset="0.2077" stop-color="#5ECDB2"/>
<stop offset="0.5606" stop-color="#5BC5EF"/>
<stop offset="1" stop-color="#417DF7"/>
</radialGradient>
<clipPath id="clip0_136_53">
<rect width="207" height="38" fill="white"/>
</clipPath>
</defs>
</svg>
